# xmcd
#
# Track frame offsets:
#	150
#	21931
#	36813
#	47987
#	63359
#	76991
#	90418
#	102074
#	115652
#	128646
#	139447
#	152096
#	166244
#	188987
#	204812
#	217682
#	231477
#	243327
#
# Disc length: 3357 seconds
# Revision: 1
# Processed by: cddbd v1.5.2PL0 Copyright (c) Steve Scherf et al.
# Submitted via: dBpowerAMP V12.0
#
DISCID=e80d1b12
DTITLE=Various Artist - 18 Greatest Blues Classics
DYEAR=2007
DGENRE=Blues
TTITLE0=The Thrill is Gone ( Live)
TTITLE1=I'm your Hoochie Coochie Man Live
TTITLE2=Boom Boom
TTITLE3=Rock me baby
TTITLE4=Sweet Home Chicago
TTITLE5=Nobody knows when your down and out
TTITLE6=Don't start me to talking
TTITLE7=My baby walked off
TTITLE8=Bear cat
TTITLE9=Mystery Train
TTITLE10=Bright lights, Big city
TTITLE11=Dust my Blues
TTITLE12=Everyday I have the blues
TTITLE13=Blues before sunrise
TTITLE14=Roll Em' Pete
TTITLE15=I'm ready
TTITLE16=Short haired woman
TTITLE17=Baby Please don't go (Live)
EXTD=
EXTT0=
EXTT1=
EXTT2=
EXTT3=
EXTT4=
EXTT5=
EXTT6=
EXTT7=
EXTT8=
EXTT9=
EXTT10=
EXTT11=
EXTT12=
EXTT13=
EXTT14=
EXTT15=
EXTT16=
EXTT17=
PLAYORDER=
